<svg width="24" height="24" viewBox="0 0 24 24" fill="none" xmlns="http://www.w3.org/2000/svg">
<path d="M12 8C10.6275 8.21429 7.88235 9.92857 7.88235 15.0714C7.88235 15.6071 7.70588 16.7429 7 17" stroke="#222326" stroke-linecap="round" stroke-linejoin="round"/>
<path d="M10 19.5C10 19.8978 9.84196 20.2794 9.56066 20.5607C9.27936 20.842 8.89782 21 8.5 21C8.10218 21 7.72064 20.842 7.43934 20.5607C7.15804 20.2794 7 19.8978 7 19.5H7.6321C7.6321 19.7302 7.72354 19.9509 7.8863 20.1137C8.04907 20.2765 8.26982 20.3679 8.5 20.3679C8.73018 20.3679 8.95094 20.2765 9.1137 20.1137C9.27646 19.9509 9.3679 19.7302 9.3679 19.5H10Z" fill="#222326"/>
<path d="M5 15C5 8.6 9.66667 5.66667 12 5C18.5 7 19 12.5 19 15C19 17 20 18.5 20.5 19H3C4.6 19 5 16.3333 5 15Z" fill="#3796F6" stroke="#222326" stroke-linecap="round" stroke-linejoin="round"/>
<path d="M12 7C13.1046 7 14 6.10457 14 5C14 3.89543 13.1046 3 12 3C10.8954 3 10 3.89543 10 5C10 6.10457 10.8954 7 12 7Z" fill="#222326"/>
</svg>
